<?xml version="1.0" encoding="UTF-8"?>
<svg id="Capa_1" data-name="Capa 1" xmlns="http://www.w3.org/2000/svg" viewBox="0 0 103.78 28.46">
  <defs>
    <style>
      .cls-1 {
        stroke-width: 0px;
      }

      .cls-1, .cls-2 {
        fill: #f2782c;
      }

      .cls-2 {
        font-family: MyanmarText-Bold, 'Myanmar Text';
        font-size: 17.84px;
        font-weight: 700;
        letter-spacing: .07em;
      }
    </style>
  </defs>
  <g>
    <path class="cls-1" d="M2.27,9.06v10.54s-.11,4.38,5.17,4.87v-3.15s-1.82.02-1.86-1.5c-.08-2.73,0-10.76,0-10.76h2.27v-3.15h-2.27V.94h-3.31v4.97H0v3.15h2.27Z"/>
    <path class="cls-1" d="M15.56,5.91c-.67,0-2.66,0-2.66,0V.94h-3.31v23.53s4.17.07,5.55,0c1.21-.06,3.66-.28,3.69-3.15.03-4.07-.07-9.21,0-12.26.02-1.13-1.25-3.18-3.26-3.15ZM15.69,20.61c-.09.59-.76.66-.76.66h-2.03v-12.22h2.15c.65.09.64.67.64.67v10.89Z"/>
  </g>
  <text class="cls-2" transform="translate(30.93 15.17)"><tspan x="0" y="0">TALENT</tspan></text>
  <g>
    <path class="cls-1" d="M42.08,22.97v-6.4h2.55c.78,0,1.38.13,1.8.39.42.26.63.63.63,1.11,0,.35-.13.65-.38.91-.26.26-.58.44-.98.54v.02c.5.06.9.22,1.19.5s.45.62.45,1.02c0,.59-.23,1.05-.69,1.4-.46.34-1.09.52-1.88.52h-2.69ZM43.66,17.63v1.52h.69c.33,0,.58-.07.77-.22.19-.14.28-.34.28-.6,0-.47-.38-.71-1.15-.71h-.59ZM43.66,20.22v1.69h.86c.36,0,.65-.08.86-.23.21-.16.31-.37.31-.63s-.1-.46-.31-.6c-.2-.15-.49-.22-.85-.22h-.87Z"/>
    <path class="cls-1" d="M52.21,23.09c-1,0-1.82-.3-2.45-.9-.63-.6-.95-1.37-.95-2.33,0-1.01.32-1.83.96-2.46.64-.63,1.49-.94,2.55-.94,1,0,1.81.3,2.43.9.62.6.93,1.39.93,2.37s-.32,1.82-.96,2.43c-.64.62-1.48.92-2.5.92ZM52.28,17.7c-.55,0-.99.19-1.32.57s-.49.88-.49,1.51.16,1.14.49,1.5.75.55,1.28.55.98-.18,1.29-.54c.32-.36.48-.86.48-1.49s-.16-1.18-.46-1.55c-.31-.37-.73-.55-1.27-.55Z"/>
    <path class="cls-1" d="M63.31,22.97h-1.87l-1.21-2.09c-.05-.08-.09-.22-.14-.43h-.02c-.02.1-.08.25-.16.45l-1.21,2.07h-1.88l2.23-3.2-2.04-3.2h1.92l1,1.92c.08.15.15.33.21.54h.02c.04-.12.11-.31.22-.56l1.11-1.9h1.76l-2.1,3.17,2.16,3.23Z"/>
    <path class="cls-1" d="M72.59,22.97h-4.17v-6.4h1.58v5.23h2.6v1.17Z"/>
    <path class="cls-1" d="M78.45,22.97h-4.17v-6.4h1.58v5.23h2.6v1.17Z"/>
    <path class="cls-1" d="M85.17,22.75c-.51.23-1.18.34-2,.34-1.08,0-1.92-.29-2.54-.87-.62-.58-.92-1.35-.92-2.31,0-1.02.35-1.85,1.04-2.49.69-.64,1.59-.96,2.7-.96.68,0,1.26.08,1.73.24v1.39c-.47-.26-1-.38-1.6-.38-.66,0-1.19.19-1.59.57-.4.38-.61.89-.61,1.54s.19,1.11.57,1.48.89.55,1.54.55,1.18-.14,1.69-.41v1.32Z"/>
  </g>
</svg>