<?xml version="1.0" encoding="UTF-8"?>
<svg id="Capa_1" data-name="Capa 1" xmlns="http://www.w3.org/2000/svg" viewBox="0 0 115.9 31.78">
  <defs>
    <style>
      .cls-1 {
        font-family: MyanmarText-Bold, 'Myanmar Text';
        font-size: 19.92px;
        font-weight: 700;
        letter-spacing: .08em;
      }

      .cls-1, .cls-2 {
        fill: #ee7141;
      }

      .cls-2 {
        stroke-width: 0px;
      }
    </style>
  </defs>
  <g>
    <path class="cls-2" d="M2.53,10.12v11.77s-.12,4.89,5.78,5.44v-3.52s-2.03.02-2.08-1.67c-.09-3.05,0-12.02,0-12.02h2.53v-3.52h-2.53V1.05h-3.7v5.55H0v3.52h2.53Z"/>
    <path class="cls-2" d="M17.38,6.6c-.74.01-2.97,0-2.97,0V1.05h-3.7v26.28s4.65.08,6.2,0c1.35-.07,4.09-.32,4.12-3.52.04-4.54-.07-10.28,0-13.69.03-1.27-1.4-3.55-3.64-3.52ZM17.52,23.02c-.1.66-.84.74-.84.74h-2.27v-13.64h2.4c.72.1.71.74.71.74v12.16Z"/>
  </g>
  <text class="cls-1" transform="translate(34.54 16.94)"><tspan x="0" y="0">TALENT</tspan></text>
  <g>
    <path class="cls-2" d="M46.99,25.66v-7.15h2.85c.87,0,1.55.15,2.01.44.47.29.7.7.7,1.24,0,.39-.14.72-.43,1.01-.29.29-.65.49-1.09.6v.02c.56.06,1,.25,1.33.56s.5.69.5,1.14c0,.65-.26,1.17-.77,1.56-.51.38-1.21.58-2.1.58h-3.01ZM48.75,19.69v1.7h.78c.36,0,.65-.08.86-.24.21-.16.31-.38.31-.67,0-.53-.43-.79-1.29-.79h-.66ZM48.75,22.58v1.89h.96c.41,0,.73-.09.96-.26.23-.17.35-.41.35-.71s-.11-.51-.34-.67c-.23-.16-.55-.24-.95-.24h-.97Z"/>
    <path class="cls-2" d="M58.3,25.78c-1.12,0-2.03-.33-2.74-1-.71-.67-1.06-1.54-1.06-2.61,0-1.13.36-2.05,1.08-2.74.72-.7,1.67-1.05,2.85-1.05,1.12,0,2.02.33,2.71,1,.69.67,1.03,1.55,1.03,2.64s-.36,2.03-1.07,2.72c-.71.69-1.65,1.03-2.8,1.03ZM58.38,19.77c-.62,0-1.11.21-1.47.64s-.55.98-.55,1.68.18,1.27.55,1.68.84.62,1.43.62,1.09-.2,1.45-.6c.36-.4.54-.96.54-1.67s-.17-1.32-.52-1.73c-.35-.41-.82-.62-1.42-.62Z"/>
    <path class="cls-2" d="M70.7,25.66h-2.09l-1.35-2.33c-.05-.09-.1-.25-.16-.48h-.02c-.03.11-.09.28-.18.5l-1.35,2.31h-2.1l2.49-3.58-2.28-3.58h2.14l1.12,2.14c.09.17.17.37.23.6h.02c.04-.14.13-.35.25-.62l1.24-2.12h1.97l-2.35,3.55,2.41,3.61Z"/>
    <path class="cls-2" d="M81.06,25.66h-4.66v-7.15h1.76v5.84h2.9v1.31Z"/>
    <path class="cls-2" d="M87.61,25.66h-4.66v-7.15h1.76v5.84h2.9v1.31Z"/>
    <path class="cls-2" d="M95.12,25.4c-.57.25-1.32.38-2.24.38-1.2,0-2.14-.32-2.83-.97-.69-.64-1.03-1.5-1.03-2.58,0-1.14.39-2.07,1.16-2.78.77-.71,1.78-1.07,3.01-1.07.76,0,1.41.09,1.93.26v1.55c-.52-.29-1.12-.43-1.79-.43-.74,0-1.33.21-1.78.63-.45.42-.68.99-.68,1.72s.21,1.24.64,1.65,1,.62,1.72.62,1.32-.15,1.89-.46v1.47Z"/>
  </g>
</svg>